<svg id="Capa_1" enable-background="new 0 0 512 512" height="512" viewBox="0 0 512 512" width="512" xmlns="http://www.w3.org/2000/svg"><g><g><g><path d="m242.066 117.416c0-61.226-50.059-110.76-111.481-109.905-59.2.824-107.515 49.139-108.339 108.34-.855 61.422 48.679 111.481 109.905 111.481 2.513 0 5.006-.084 7.477-.251 2.424-.163 4.798.724 6.53 2.428l32.853 32.312c3.56 3.501 9.589 1.307 10.065-3.664l4.397-45.869c.232-2.425 1.491-4.633 3.458-6.07 27.36-19.991 45.135-52.32 45.135-88.802z" fill="#bed9fd"/><path d="m345.378 34.028-16.655 45.759 37.009 13.47 16.655-45.759c.985-2.706-.41-5.698-3.116-6.683l-27.21-9.904c-2.706-.984-5.698.411-6.683 3.117z" fill="#ddebfd"/><path d="m379.271 40.815-21.56-7.847c2.213.805 3.208 3.652 2.223 6.358l-16.655 45.759 22.453 8.172 16.655-45.759c.985-2.706-.41-5.698-3.116-6.683z" fill="#bed9fd"/><path d="m245.725 230.75 56.436-155.056c.99-2.719 3.996-4.121 6.715-3.131l76.703 27.918c2.719.99 4.121 3.996 3.131 6.715l-56.436 155.056c-.99 2.719-3.996 4.121-6.715 3.131l-76.703-27.918c-2.719-.989-4.121-3.996-3.131-6.715z" fill="#6cbff8"/><path d="m385.579 100.481-18.528-6.743c2.351.856 3.455 3.754 2.465 6.473l-56.436 155.056c-.99 2.719-3.698 4.23-6.049 3.374l18.527 6.743c2.719.99 5.726-.412 6.715-3.131l56.436-155.056c.991-2.72-.411-5.726-3.13-6.716z" fill="#5fa7ee"/><path d="m257.621 240.656-9.13 25.084c-1.076 2.957.448 6.227 3.405 7.303l48.465 17.64c2.957 1.076 6.227-.448 7.303-3.405l9.13-25.084z" fill="#ddebfd"/><path d="m292.322 253.286-9.13 25.084c-1.076 2.957-3.909 4.64-6.327 3.761l23.497 8.552c2.957 1.076 6.226-.448 7.303-3.405l9.13-25.084z" fill="#bed9fd"/><path d="m225.052 386.754v75.694h200.848c39.759 0 69.851-35.943 62.861-75.082l-36.925-206.751c-2.248-12.587-13.195-21.753-25.982-21.753h-78.3v36.112h52.824c7.361 0 13.329 5.968 13.329 13.329v151.601c0 14.828-12.021 26.849-26.849 26.849h-161.806z" fill="#ddebfd"/><path d="m488.761 387.366-36.925-206.751c-2.248-12.587-13.195-21.753-25.982-21.753h-26.667c12.786 0 23.734 9.165 25.982 21.753l36.925 206.751c6.99 39.139-23.102 75.082-62.861 75.082h26.667c39.759 0 69.851-35.942 62.861-75.082z" fill="#bed9fd"/><path d="m145.376 467.448v32.052c0 2.761 2.239 5 5 5h258.15c2.761 0 5-2.239 5-5v-37.052h-263.15c-2.761 0-5 2.239-5 5z" fill="#407194"/><path d="m388.079 462.448v37.052c0 2.761-2.239 5-5 5h25.447c2.761 0 5-2.239 5-5v-37.052z" fill="#365f7e"/><path d="m193.453 352.555v29.199c0 2.761 2.239 5 5 5h161.996c2.761 0 5-2.239 5-5v-29.199c0-2.761-2.239-5-5-5h-161.996c-2.761 0-5 2.239-5 5z" fill="#407194"/><path d="m360.449 347.555h-25.447c2.761 0 5 2.239 5 5v29.199c0 2.761-2.239 5-5 5h25.447c2.761 0 5-2.239 5-5v-29.199c0-2.761-2.238-5-5-5z" fill="#365f7e"/><g transform="matrix(.987 -.16 .16 .987 -23.899 59.393)"><ellipse cx="356.442" cy="177.933" fill="#df646e" rx="45.643" ry="45.643"/><ellipse cx="356.442" cy="177.933" fill="#ddebfd" rx="15.214" ry="15.214"/></g><ellipse cx="178.772" cy="86.715" fill="#5392f9" rx="15.922" ry="15.922" transform="matrix(.987 -.16 .16 .987 -11.582 29.756)"/><ellipse cx="78.414" cy="116.368" fill="#ffa95f" rx="15.922" ry="15.922" transform="matrix(.987 -.16 .16 .987 -17.628 14.063)"/></g></g><g><path d="m140.899 234.857 32.853 32.313c2.573 2.53 5.928 3.87 9.374 3.87 1.549 0 3.116-.271 4.64-.825 4.915-1.789 8.278-6.134 8.777-11.34l4.396-45.869c.027-.291.18-.557.417-.73 30.188-22.059 48.211-57.52 48.211-94.858 0-31.672-12.42-61.363-34.974-83.604-22.549-22.237-52.37-34.241-84.112-33.8-30.596.426-59.454 12.669-81.26 34.475s-34.049 50.665-34.475 81.26c-.441 31.692 11.563 61.563 33.8 84.112 22.241 22.553 51.933 34.973 83.604 34.973 2.654 0 5.339-.09 7.979-.267.288-.018.562.085.77.29zm-8.748-15.025c-27.626 0-53.524-10.834-72.925-30.506-19.396-19.668-29.866-45.725-29.481-73.371.37-26.668 11.055-51.834 30.082-70.862 19.028-19.028 44.194-29.711 70.862-30.083 27.626-.372 53.703 10.085 73.371 29.482 19.672 19.4 30.506 45.298 30.506 72.924 0 32.569-15.724 63.502-42.062 82.748-3.693 2.7-6.062 6.858-6.498 11.41l-4.083 42.595-30.508-30.006c-3.005-2.955-7.047-4.6-11.226-4.6-.354 0-.71.012-1.066.036-2.305.154-4.652.233-6.972.233z"/><path d="m496.147 386.052-36.93-206.762c-2.895-16.184-16.926-27.93-33.363-27.93h-23.418c-3.912-6.745-9.259-12.552-15.628-17.003l8.955-24.591c2.402-6.601-1.017-13.928-7.622-16.333l-12.795-4.658 14.089-38.711c2.404-6.602-.993-13.893-7.598-16.297l-27.21-9.903c-6.604-2.403-13.893.995-16.296 7.599l-14.09 38.71-12.8-4.659c-6.594-2.4-13.912 1.011-16.324 7.612l-56.441 155.062c-2.4 6.603 1.015 13.929 7.614 16.332l1.717.625-6.563 18.031c-1.205 3.313-1.049 6.896.44 10.091 1.49 3.195 4.135 5.619 7.447 6.824l48.466 17.64c1.474.536 3 .803 4.522.803 1.9 0 3.795-.416 5.569-1.243 3.195-1.49 5.618-4.135 6.824-7.447l6.566-18.04 1.71.622c1.424.52 2.899.779 4.371.779 5.083 0 10.044-3.116 11.96-8.387l12.369-33.965c21.651 1.928 41.57-9.363 51.496-27.656 1.798.994 3.019 2.908 3.019 5.104v57.73c0 4.142 3.357 7.5 7.5 7.5s7.5-3.358 7.5-7.5v-57.731c0-8.642-5.293-16.069-12.806-19.218.771-3.598 1.187-7.325 1.187-11.15 0-3.975-.453-7.844-1.284-11.572h17.553c9.162 0 16.984 6.548 18.598 15.569l36.93 206.76c2.939 16.462-1.531 33.258-12.268 46.082s-26.486 20.18-43.209 20.18c-7.368 0-185.989-.002-193.351-.002v-60.694c3.084 0 126.051-.003 154.3-.003 18.941 0 34.351-15.409 34.351-34.35v-58.87c0-4.142-3.357-7.5-7.5-7.5s-7.5 3.358-7.5 7.5v58.87c0 10.67-8.681 19.35-19.351 19.35h-13.904v-26.695c0-6.893-5.607-12.5-12.5-12.5h-161.996c-6.893 0-12.5 5.607-12.5 12.5v29.199c0 6.893 5.607 12.5 12.5 12.5h19.101v60.694h-67.178c-6.893 0-12.5 5.607-12.5 12.5v32.05c0 6.893 5.607 12.5 12.5 12.5h57.176c4.143 0 7.5-3.358 7.5-7.5s-3.357-7.5-7.5-7.5h-54.676v-27.052c24.822 0 230.911.002 253.15.002v27.05h-163.474c-4.143 0-7.5 3.358-7.5 7.5s3.357 7.5 7.5 7.5h165.975c6.893 0 12.5-5.607 12.5-12.5v-29.55h4.878c21.174 0 41.115-9.313 54.71-25.551 13.593-16.236 19.254-37.503 15.532-58.347zm-144.503-347.311 22.914 8.339-13.309 36.564-22.913-8.341zm-50.41 244.277-45.078-16.407 5.947-16.339 45.08 16.402zm24.766-25.46c-13.129-4.777-63.528-23.114-72.457-26.362l54.895-150.813c6.713 2.444 72.456 26.375 72.456 26.375l-7.573 20.796c-5.307-1.783-10.979-2.764-16.88-2.764-29.303 0-53.143 23.84-53.143 53.143 0 22.439 13.987 41.661 33.694 49.441zm30.442-41.482c-21.032 0-38.143-17.111-38.143-38.143s17.11-38.143 38.143-38.143 38.144 17.111 38.144 38.143-17.112 38.143-38.144 38.143zm-155.489 138.979h156.996v24.195c-.861 0-132.314.003-156.996.003z"/><path d="m356.442 155.218c-12.524 0-22.714 10.189-22.714 22.714s10.189 22.714 22.714 22.714 22.715-10.189 22.715-22.714-10.19-22.714-22.715-22.714zm0 30.429c-4.254 0-7.714-3.46-7.714-7.714s3.46-7.714 7.714-7.714 7.715 3.46 7.715 7.714-3.461 7.714-7.715 7.714z"/><path d="m178.772 110.137c12.915 0 23.422-10.507 23.422-23.422s-10.507-23.422-23.422-23.422-23.422 10.507-23.422 23.422 10.507 23.422 23.422 23.422zm0-31.844c4.644 0 8.422 3.778 8.422 8.422s-3.778 8.422-8.422 8.422-8.422-3.778-8.422-8.422 3.778-8.422 8.422-8.422z"/><path d="m78.413 92.946c-12.915 0-23.422 10.507-23.422 23.422s10.507 23.422 23.422 23.422 23.423-10.507 23.423-23.422-10.508-23.422-23.423-23.422zm0 31.844c-4.644 0-8.422-3.778-8.422-8.422s3.778-8.422 8.422-8.422c4.645 0 8.423 3.778 8.423 8.422s-3.778 8.422-8.423 8.422z"/><path d="m193.863 142.135-11.425 11.424c-2.93 2.929-2.93 7.677-.001 10.606 1.465 1.465 3.384 2.197 5.304 2.197 1.919 0 3.839-.732 5.303-2.197l11.425-11.424c2.93-2.929 2.93-7.677.001-10.606s-7.679-2.929-10.607 0z"/><path d="m119.423 50.911c-2.928-2.93-7.677-2.929-10.606 0l-11.424 11.424c-2.929 2.929-2.929 7.678.001 10.606 1.464 1.465 3.384 2.197 5.303 2.197s3.839-.732 5.304-2.197l11.424-11.424c2.928-2.929 2.928-7.677-.002-10.606z"/><path d="m143.166 113.469-11.424-11.424c-2.929-2.929-7.678-2.929-10.606 0-2.93 2.929-2.93 7.677-.001 10.606l11.424 11.424c1.465 1.465 3.384 2.197 5.304 2.197 1.919 0 3.839-.732 5.303-2.197 2.929-2.928 2.929-7.677 0-10.606z"/><path d="m122.315 161.863-11.424 11.424c-2.929 2.929-2.929 7.678.001 10.606 1.464 1.465 3.384 2.197 5.303 2.197s3.839-.732 5.304-2.197l11.424-11.424c2.929-2.929 2.929-7.678-.001-10.606-2.929-2.93-7.678-2.929-10.607 0z"/></g></g></svg>